<?xml version="1.0" standalone="no"?>
<!DOCTYPE svg PUBLIC "-//W3C//DTD SVG 20010904//EN"
 "http://www.w3.org/TR/2001/REC-SVG-20010904/DTD/svg10.dtd">
<svg version="1.0" xmlns="http://www.w3.org/2000/svg"
 width="500.000000pt" height="500.000000pt" viewBox="0 0 500.000000 500.000000"
 preserveAspectRatio="xMidYMid meet">
<metadata>
Created by potrace 1.14, written by Peter Selinger 2001-2017
</metadata>
<g transform="translate(0.000000,500.000000) scale(0.100000,-0.100000)"
fill="#000000" stroke="none">
<path d="M2040 4785 c-13 -8 -49 -14 -80 -15 -30 0 -68 -2 -83 -4 -15 -3 -40
-1 -55 3 -15 4 -40 4 -57 -1 -16 -5 -50 -11 -75 -14 -25 -2 -65 -15 -90 -27
-25 -12 -48 -22 -51 -22 -3 0 -22 -9 -42 -20 -31 -16 -43 -18 -86 -9 -32 7
-48 7 -44 1 3 -6 1 -7 -5 -3 -6 4 -31 9 -54 11 -37 4 -46 1 -65 -21 -12 -15
-25 -34 -28 -43 -3 -9 -37 -36 -75 -60 -86 -54 -106 -92 -109 -208 -1 -33 -90
-117 -157 -149 -61 -29 -84 -46 -84 -62 0 -6 -13 -21 -30 -35 -16 -14 -32 -36
-35 -50 -4 -14 -22 -49 -41 -79 -19 -29 -40 -68 -46 -85 -7 -18 -16 -33 -20
-33 -4 0 -8 -7 -8 -15 0 -8 -4 -15 -10 -15 -12 0 -6 -70 7 -78 12 -8 25 -220
14 -227 -4 -2 -6 -26 -3 -53 3 -43 1 -50 -21 -65 -33 -21 -42 -50 -24 -79 14
-22 15 -30 2 -73 -6 -23 4 -42 25 -47 16 -3 60 -44 60 -56 0 -4 17 -26 39 -48
48 -53 82 -100 86 -122 2 -9 4 -18 5 -19 2 -2 3 -8 4 -14 1 -14 59 -79 70 -79
14 0 106 -64 151 -105 49 -45 76 -52 119 -31 18 8 55 18 81 20 26 3 50 7 52
10 2 2 25 -2 50 -10 54 -16 74 -12 178 37 54 26 81 35 86 27 4 -6 39 -12 77
-13 95 -3 154 -34 160 -85 5 -47 20 -63 51 -55 14 3 44 8 66 10 22 2 51 6 65
9 20 5 31 -1 56 -30 27 -31 31 -41 28 -87 -1 -29 -5 -70 -9 -92 -26 -166 -23
-188 28 -250 20 -24 42 -56 49 -72 7 -15 21 -37 30 -47 16 -18 18 -18 24 -2 5
12 10 14 19 6 9 -8 15 -6 20 7 6 17 7 17 20 -1 17 -23 10 -86 -10 -102 -12 -9
-11 -17 5 -50 11 -21 20 -44 20 -51 0 -7 4 -13 9 -13 4 0 7 -15 4 -32 -9 -74
-5 -110 15 -130 24 -24 7 -158 -20 -158 -21 0 -67 -140 -72 -219 -4 -51 3 -73
42 -136 4 -5 7 -12 8 -15 0 -3 15 -36 32 -73 18 -38 32 -72 32 -77 0 -4 8 -18
19 -31 10 -13 24 -41 30 -61 7 -21 17 -38 22 -38 6 0 7 -4 4 -10 -3 -5 -1 -10
4 -10 14 0 14 -47 1 -55 -6 -4 -8 -33 -6 -73 5 -64 15 -104 51 -202 9 -25 18
-52 20 -60 2 -8 5 -22 7 -30 1 -8 17 -42 34 -75 17 -33 29 -70 27 -80 -10 -55
-2 -92 27 -122 22 -23 29 -24 79 -18 78 10 75 9 83 20 4 5 53 12 110 16 122 9
126 9 158 32 13 9 29 17 34 17 10 0 15 4 103 91 35 34 72 81 83 103 11 23 37
58 59 79 51 48 68 96 51 147 -16 49 -4 71 55 99 24 11 49 21 53 21 32 0 61
103 40 143 -10 19 -17 57 -23 131 -5 49 -4 51 42 90 26 23 65 57 88 77 22 19
63 48 90 64 28 15 60 40 73 54 46 53 50 69 46 210 -4 126 -5 135 -28 155 -32
28 -48 85 -47 161 0 45 -4 68 -14 79 -23 23 -22 82 2 109 12 12 24 37 28 55 3
17 11 32 16 32 5 0 9 5 9 11 0 7 20 32 45 56 25 24 45 46 45 49 0 3 6 12 13
19 6 8 23 29 37 46 54 70 94 111 144 146 51 38 106 91 106 106 0 4 7 7 15 7 8
0 15 4 15 9 0 6 14 30 30 55 17 24 38 62 46 83 9 21 21 49 27 63 6 14 11 28
11 32 1 3 4 10 9 14 4 4 7 14 7 21 0 8 7 21 15 30 8 8 13 19 10 24 -4 5 -2 9
4 9 9 0 27 69 37 139 6 45 -13 57 -43 29 -13 -12 -23 -18 -23 -14 0 5 -6 4
-13 -2 -7 -7 -34 -13 -59 -16 -43 -4 -75 -11 -170 -38 -74 -20 -82 -18 -123
41 -22 33 -25 44 -16 55 14 17 -5 56 -27 56 -7 0 -10 4 -7 10 3 6 1 10 -4 10
-6 0 -21 16 -33 35 -13 19 -39 43 -58 54 -57 32 -85 71 -116 165 -19 58 -38
96 -54 110 -14 11 -27 24 -28 29 -1 4 -2 8 -3 10 -1 4 -8 32 -13 55 -3 12 -1
22 5 22 28 0 -24 120 -63 145 -28 18 -45 49 -51 95 -4 27 -45 95 -64 106 -15
9 -18 23 -18 73 1 33 -2 61 -6 61 -4 0 6 25 21 57 l28 56 -21 49 c-11 26 -22
48 -26 49 -3 0 -22 2 -41 3 -19 2 -60 7 -91 11 -46 5 -65 3 -99 -13 -32 -14
-51 -17 -74 -11 -17 5 -60 16 -96 25 -134 34 -167 45 -203 70 -27 18 -44 23
-64 18 -48 -10 -83 -26 -84 -38 -1 -6 -3 -27 -4 -47 -3 -52 -10 -66 -40 -73
-20 -5 -35 -1 -60 19 -19 13 -42 26 -52 28 -10 1 -22 5 -28 8 -5 4 -20 5 -32
4 -15 -1 -27 8 -40 32 -21 39 -64 62 -135 70 -29 3 -66 16 -84 27 -17 12 -39
26 -48 31 -28 16 -25 47 5 72 27 23 30 49 6 64 -5 4 -9 20 -9 35 0 33 -24 64
-47 63 -9 -1 -27 -7 -41 -14z"/>
<path d="M4302 1578 c-7 -7 -12 -18 -12 -25 0 -8 -13 -27 -30 -43 -16 -16 -30
-34 -30 -41 0 -13 -50 -75 -59 -73 -3 1 -17 -7 -30 -17 -13 -11 -39 -19 -58
-19 -26 0 -36 -5 -45 -25 -9 -19 -9 -28 0 -37 8 -8 8 -14 -2 -22 -17 -13 -32
-76 -18 -76 6 0 12 -19 14 -42 3 -35 -3 -56 -35 -115 -35 -67 -38 -77 -33
-135 2 -35 5 -77 5 -94 2 -66 70 -105 132 -76 38 18 71 50 64 62 -3 5 0 10 6
12 7 2 13 13 14 24 3 22 4 28 34 114 13 36 24 75 26 86 2 12 8 32 15 44 7 13
14 37 17 54 3 17 11 38 19 47 8 8 14 23 14 33 0 30 33 121 48 132 11 8 13 23
8 60 -3 27 -8 73 -11 103 -7 71 -26 96 -53 69z"/>
</g>
</svg>
